<?xml version="1.0" encoding="utf-8"?>
<!-- Generator: Adobe Illustrator 26.3.1, SVG Export Plug-In . SVG Version: 6.00 Build 0)  -->
<svg version="1.1" id="Слой_1" xmlns="http://www.w3.org/2000/svg" xmlns:xlink="http://www.w3.org/1999/xlink" x="0px" y="0px"
	 viewBox="0 0 1080 1080" style="enable-background:new 0 0 1080 1080;" xml:space="preserve">
<style type="text/css">
	.st0{fill:#2A2F67;}
	.st1{fill:#009456;}
</style>
<g>
	<path class="st0" d="M326.03,397.79v142.65c46.09,0,96.6-0.21,142.69-0.21l-0.04,285.51h142.65l0.04-285.32H754V397.58
		L326.03,397.79z"/>
	<polygon class="st0" points="540,326.29 825.35,183.63 825.35,326.27 968,326.27 968,40.98 825.35,40.98 540,183.63 254.65,40.98 
		112,40.98 112,326.27 254.65,326.27 254.65,183.63 	"/>
	<path class="st1" d="M540.05,1039.45c-112.25,0-215.93-36.26-291.92-102.11c-62.08-53.79-136.08-153.97-136.08-325.8
		c0-30.23,0.01-61.72,0.03-94.98c0.01-37.2,0.03-76.62,0.03-118.98h142.66c0,42.38-0.02,81.82-0.03,119.04
		c-0.01,33.24-0.03,64.7-0.03,94.92c0,210.32,147.4,285.25,285.34,285.25c137.89,0,285.23-74.94,285.23-285.25
		c0-29.37,0.01-60.29,0.03-93.22c0.01-37.45,0.03-77.48,0.03-120.73H968c0,43.28-0.02,83.33-0.03,120.79
		c-0.01,32.9-0.03,63.81-0.03,93.16c0,171.83-73.96,272.01-136.01,325.79C755.96,1003.18,652.3,1039.45,540.05,1039.45z"/>
</g>
</svg>
